<?xml version="1.0" standalone="no"?>
<!DOCTYPE svg PUBLIC "-//W3C//DTD SVG 20010904//EN"
 "http://www.w3.org/TR/2001/REC-SVG-20010904/DTD/svg10.dtd">
<svg version="1.0" xmlns="http://www.w3.org/2000/svg"
 width="374.000000pt" height="374.000000pt" viewBox="0 0 374.000000 374.000000"
 preserveAspectRatio="xMidYMid meet">
<metadata>
Created by potrace 1.14, written by Peter Selinger 2001-2017
</metadata>
<g transform="translate(0.000000,374.000000) scale(0.100000,-0.100000)"
fill="#000000" stroke="none">
<path d="M1677 3704 c-3 -6 -21 -11 -39 -12 -18 -1 -42 -4 -53 -6 -11 -3 -30
-5 -42 -5 -29 -1 -63 -38 -63 -68 0 -16 -4 -22 -12 -17 -7 5 -8 3 -3 -6 4 -7
2 -16 -6 -21 -11 -7 -12 -11 -1 -17 10 -7 10 -11 -2 -22 -9 -7 -14 -16 -11
-20 3 -5 1 -11 -4 -14 -5 -3 -7 -14 -4 -24 5 -20 -38 -49 -56 -38 -6 4 -11 3
-11 -3 0 -5 -18 -12 -40 -16 -22 -4 -40 -10 -40 -15 0 -4 -16 -11 -35 -14 -19
-4 -35 -11 -35 -17 0 -6 -5 -7 -12 -3 -6 4 -17 -1 -25 -11 -7 -11 -13 -15 -13
-11 0 5 -7 3 -15 -4 -8 -6 -18 -9 -24 -6 -5 3 -11 0 -14 -8 -8 -20 -45 -26
-61 -10 -8 8 -17 14 -21 14 -4 0 -26 14 -51 30 -24 17 -44 27 -44 23 0 -4 -4
-2 -9 6 -10 15 -81 24 -81 11 0 -5 -20 -20 -45 -34 -24 -15 -49 -34 -54 -44
-6 -9 -11 -13 -11 -7 0 5 -7 -1 -16 -13 -8 -12 -21 -22 -28 -22 -7 0 -29 -18
-48 -40 -20 -21 -38 -37 -41 -34 -3 3 -8 -4 -12 -15 -3 -12 -11 -19 -16 -16
-5 4 -9 2 -9 -3 0 -4 -22 -32 -50 -60 -27 -29 -50 -56 -50 -62 0 -5 -7 -10
-15 -10 -8 0 -14 -3 -14 -7 3 -18 -2 -36 -7 -30 -9 9 -44 -37 -44 -58 0 -9 -4
-13 -10 -10 -5 3 -12 -6 -16 -20 -3 -14 -11 -25 -17 -25 -6 0 -7 -3 -4 -6 3
-4 2 -16 -4 -27 -6 -10 -7 -17 -2 -14 5 3 19 -13 32 -36 12 -23 27 -51 34 -62
49 -80 52 -91 26 -109 -11 -7 -19 -17 -18 -22 2 -5 -10 -36 -25 -69 -15 -33
-28 -68 -29 -77 -1 -10 -5 -18 -9 -18 -4 0 -15 -27 -24 -60 -19 -67 -30 -81
-71 -84 -15 -1 -33 -5 -39 -8 -6 -4 -22 -9 -37 -12 -41 -7 -95 -36 -102 -54
-3 -9 -9 -45 -12 -79 -3 -34 -9 -61 -12 -59 -3 2 -6 -88 -6 -200 0 -112 2
-204 5 -204 3 0 6 -28 8 -63 2 -34 7 -63 12 -65 5 -2 6 -10 4 -17 -7 -17 27
-55 52 -60 11 -2 20 -4 22 -5 1 -2 7 -4 12 -5 6 -1 13 -4 18 -5 4 -1 11 -2 16
-1 4 1 13 -3 20 -8 10 -9 48 -18 84 -20 6 -1 11 -4 10 -8 -4 -13 26 -103 34
-103 4 0 5 -9 3 -20 -2 -11 0 -20 6 -20 5 0 9 -9 9 -21 0 -13 4 -18 12 -13 7
4 8 3 4 -4 -4 -6 5 -34 19 -62 14 -27 22 -50 18 -50 -4 0 2 -7 13 -15 10 -8
15 -15 10 -15 -5 0 -2 -7 5 -16 11 -14 11 -18 -2 -28 -9 -6 -14 -17 -12 -23 3
-7 0 -13 -5 -13 -12 0 -57 -77 -66 -114 -4 -15 -11 -24 -17 -20 -6 3 1 -12 15
-35 15 -23 24 -41 20 -41 -3 0 1 -6 8 -13 7 -8 27 -31 43 -52 17 -21 38 -47
48 -57 9 -10 17 -23 17 -29 0 -5 5 -7 10 -4 6 3 10 2 10 -4 0 -12 140 -151
152 -151 4 0 8 -8 8 -17 0 -9 3 -14 6 -10 4 3 12 1 19 -6 6 -7 27 -23 45 -37
18 -14 39 -31 46 -38 7 -6 17 -12 23 -12 6 0 11 -4 11 -10 0 -5 7 -10 15 -10
8 0 15 -4 15 -8 0 -16 62 -12 88 6 15 11 37 23 50 26 12 4 20 12 17 17 -4 5
-1 10 4 10 6 1 15 2 21 3 5 0 18 9 29 18 12 10 23 13 26 7 4 -5 11 -7 16 -4 5
4 9 3 9 -2 0 -9 61 -39 73 -35 4 1 7 -3 7 -8 0 -6 8 -10 18 -10 9 0 26 -7 36
-15 10 -8 23 -12 27 -9 5 3 9 0 9 -7 0 -7 3 -9 7 -6 3 4 17 0 31 -9 13 -9 21
-11 17 -5 -3 6 10 2 29 -9 20 -11 36 -15 36 -10 0 5 9 2 19 -7 11 -9 18 -20
15 -25 -3 -4 -1 -8 3 -8 5 0 10 -12 11 -26 1 -15 8 -34 15 -42 8 -10 8 -13 0
-9 -7 5 -9 0 -6 -13 3 -11 8 -18 12 -16 3 2 7 -6 7 -19 3 -48 42 -83 87 -76 4
0 7 -5 7 -12 0 -8 4 -7 10 3 5 8 10 11 10 5 0 -14 54 -17 280 -18 210 -1 300
4 300 14 0 4 8 6 18 4 51 -8 93 51 104 148 1 9 5 17 9 17 4 0 6 8 5 18 -3 17
18 56 32 58 22 2 69 18 80 27 6 5 12 6 12 2 0 -4 7 -2 15 5 8 6 19 9 25 5 5
-3 10 1 10 9 0 9 6 13 14 10 8 -3 17 -1 21 5 3 6 13 11 22 11 9 0 25 8 36 17
13 12 17 13 12 4 -5 -9 5 -5 22 7 17 12 36 22 41 22 6 0 12 4 14 8 2 5 22 -1
45 -13 23 -13 40 -25 37 -28 -3 -3 5 -8 18 -12 13 -4 31 -14 40 -23 24 -20 97
-25 105 -6 3 8 10 14 16 14 6 0 38 21 71 47 63 48 68 53 123 103 18 17 37 30
43 30 5 0 9 4 8 9 -2 5 18 30 45 55 26 25 44 46 41 46 -4 0 4 11 17 24 67 67
127 155 134 195 3 19 -2 34 -15 48 -10 12 -17 23 -14 26 2 2 -2 10 -11 17 -8
7 -15 18 -15 24 0 6 -11 24 -25 40 -20 23 -22 32 -14 48 6 11 8 22 5 25 -3 3
5 14 17 25 12 11 15 16 7 12 -13 -7 -13 -6 0 10 8 10 15 25 16 34 2 8 8 18 14
22 7 4 11 10 10 14 -1 4 4 21 11 39 6 18 11 35 10 40 0 4 4 7 11 7 6 0 9 3 5
6 -3 4 2 28 12 55 10 26 16 50 13 53 -5 5 31 10 51 7 4 0 7 4 7 10 0 5 5 7 10
4 6 -4 16 -2 23 3 7 6 14 10 17 9 3 0 26 5 52 12 48 13 68 29 72 53 1 7 4 18
8 23 3 6 7 35 9 65 1 30 5 60 8 65 9 15 7 404 -1 398 -5 -2 -9 19 -9 46 -1 48
-3 59 -9 79 -1 4 -2 10 -1 15 0 4 -4 7 -10 7 -6 0 -9 6 -6 14 4 10 -4 17 -24
21 -16 4 -29 11 -29 17 0 7 -5 6 -14 -1 -9 -8 -15 -8 -18 -2 -1 6 -14 12 -28
15 -14 2 -26 5 -27 7 -6 3 -24 7 -50 8 -14 0 -24 4 -20 7 3 4 0 13 -8 21 -8 8
-15 23 -15 33 0 10 -5 22 -10 25 -6 4 -8 10 -5 15 3 5 -6 32 -20 60 -14 27
-22 50 -19 50 3 0 -1 11 -10 25 -9 13 -16 31 -16 38 0 8 -7 20 -15 27 -8 7
-12 16 -9 21 3 5 1 9 -4 9 -22 0 -19 42 4 69 13 16 24 33 24 39 0 5 9 21 21
36 11 14 17 26 14 26 -4 0 -1 7 6 16 15 18 21 77 8 68 -5 -3 -9 4 -9 15 0 13
-7 21 -17 21 -9 0 -14 3 -10 6 8 8 -80 123 -99 131 -8 3 -12 8 -9 12 2 4 -14
24 -36 44 -22 21 -37 42 -34 47 4 6 3 10 -2 9 -21 -4 -33 2 -33 16 0 8 -4 15
-8 15 -8 0 -60 42 -113 92 -16 14 -29 25 -29 22 0 -2 -9 4 -19 14 -36 32 -51
43 -51 37 0 -4 -7 1 -16 9 -8 9 -27 16 -40 16 -17 0 -23 4 -18 13 4 6 -2 4
-13 -6 -11 -9 -23 -14 -26 -10 -4 3 -7 1 -7 -5 0 -7 -5 -12 -12 -12 -7 0 -25
-12 -41 -27 -17 -16 -27 -21 -23 -13 4 8 0 6 -8 -4 -9 -11 -16 -16 -16 -11 0
4 -9 0 -20 -10 -16 -15 -22 -15 -35 -5 -8 7 -15 9 -15 4 0 -5 -5 -1 -11 9 -6
9 -14 15 -20 12 -5 -4 -9 -1 -9 5 0 7 -6 10 -14 7 -8 -3 -17 1 -20 8 -3 8 -12
12 -21 9 -8 -3 -15 -1 -15 5 0 6 -9 11 -19 11 -11 0 -26 7 -34 15 -8 8 -18 11
-21 7 -4 -3 -11 0 -16 8 -8 12 -10 13 -10 1 0 -11 -5 -10 -20 4 -11 10 -20 15
-20 10 0 -4 -7 -2 -15 5 -8 7 -15 9 -15 5 0 -4 -8 -1 -17 6 -14 12 -16 12 -9
-1 4 -8 -2 -5 -13 8 -11 13 -17 30 -14 38 3 8 0 20 -5 27 -6 7 -12 29 -14 49
-1 20 -6 34 -10 32 -4 -3 -8 6 -8 20 0 14 -4 26 -10 26 -5 0 -10 7 -10 16 0 8
-4 13 -9 10 -5 -4 -11 -2 -13 3 -3 9 -92 24 -145 25 -13 0 -23 3 -23 6 0 9
-343 7 -357 -3 -6 -4 -13 -2 -15 5 -3 8 -7 8 -11 2z m353 -154 c0 -4 12 -7 28
-7 73 -1 81 -3 76 -18 -4 -8 -2 -15 3 -15 9 0 11 -7 14 -47 1 -10 6 -23 11
-30 5 -7 7 -17 4 -22 -4 -5 -1 -13 5 -16 5 -4 8 -13 5 -21 -3 -8 -2 -14 3 -14
5 0 11 -9 14 -21 3 -12 10 -18 15 -15 6 3 12 1 14 -4 2 -6 13 -12 26 -13 12 0
22 -4 22 -7 0 -4 7 -7 15 -8 8 -1 22 -3 30 -4 8 -1 15 -6 15 -11 0 -6 3 -8 6
-4 4 3 28 -2 55 -12 26 -10 50 -16 53 -13 4 3 6 0 6 -6 0 -7 9 -12 20 -12 11
0 20 -5 20 -11 0 -5 5 -7 10 -4 6 3 10 1 10 -4 0 -6 3 -11 8 -10 15 2 52 -14
52 -23 0 -5 5 -6 10 -3 6 3 10 1 10 -5 0 -6 4 -9 9 -6 4 3 16 -3 26 -14 15
-16 21 -18 33 -7 13 10 14 9 7 -2 -6 -11 -2 -12 21 -7 16 4 32 13 36 19 4 7 8
8 8 2 0 -5 7 -1 15 9 8 11 15 16 15 11 0 -4 9 0 20 10 11 10 20 14 20 9 0 -5
7 2 16 14 8 12 24 22 35 22 28 0 61 -19 54 -31 -4 -5 1 -9 9 -9 9 0 16 -5 16
-11 0 -5 4 -8 8 -5 5 3 14 -4 22 -14 8 -10 17 -17 22 -14 4 3 8 -2 8 -10 0 -9
4 -16 9 -16 13 0 110 -97 104 -104 -4 -3 1 -6 10 -6 10 0 17 -5 17 -11 0 -7
10 -21 23 -33 38 -38 66 -79 60 -89 -3 -6 -1 -7 4 -4 6 4 14 0 17 -8 3 -9 -1
-18 -9 -21 -8 -4 -12 -10 -9 -15 3 -5 0 -9 -5 -9 -6 0 -11 -7 -11 -15 0 -8 -4
-15 -10 -15 -5 0 -10 -5 -10 -11 0 -6 -9 -23 -20 -39 -11 -15 -17 -30 -13 -34
3 -3 2 -6 -3 -6 -12 0 -16 -41 -5 -55 19 -24 71 -127 71 -141 0 -8 4 -14 9
-14 8 0 12 -11 26 -62 2 -5 4 -11 5 -15 1 -5 2 -11 1 -15 0 -5 4 -8 11 -8 6 0
8 -3 5 -7 -4 -3 -2 -12 4 -20 6 -7 8 -13 4 -13 -4 0 -3 -6 2 -12 10 -12 22
-50 30 -93 4 -24 43 -66 54 -59 5 3 9 1 9 -4 0 -9 8 -11 60 -14 17 -1 30 -5
30 -10 0 -4 10 -8 23 -8 40 0 56 -21 63 -85 10 -83 11 -355 2 -355 -5 0 -8 -5
-8 -11 0 -5 5 -7 12 -3 6 4 4 -3 -4 -15 -9 -12 -14 -31 -11 -42 5 -18 -5 -23
-44 -22 -7 1 -10 -3 -7 -8 5 -9 -8 -13 -38 -10 -10 1 -18 -2 -18 -6 0 -5 -10
-9 -22 -10 -60 -1 -107 -47 -99 -95 0 -5 -4 -8 -11 -8 -6 0 -9 -3 -5 -6 3 -4
0 -22 -8 -41 -8 -20 -15 -44 -15 -54 0 -11 -4 -19 -10 -19 -5 0 -10 -7 -10
-15 0 -20 -50 -128 -64 -137 -6 -4 -7 -8 -2 -8 5 0 3 -6 -3 -13 -6 -8 -8 -17
-4 -20 3 -4 1 -7 -5 -7 -7 0 -12 -6 -12 -14 0 -8 -8 -17 -17 -20 -14 -6 -15
-9 -4 -15 9 -6 10 -11 2 -15 -14 -9 -3 -57 18 -73 9 -7 12 -13 7 -13 -4 0 3
-15 18 -34 14 -19 26 -40 26 -46 0 -6 6 -13 14 -16 12 -5 13 -11 4 -30 -6 -13
-15 -21 -21 -17 -6 3 -7 1 -4 -4 4 -6 -3 -22 -16 -35 -12 -14 -40 -46 -62 -72
-43 -50 -44 -51 -90 -92 -16 -14 -29 -31 -27 -36 1 -5 -1 -7 -6 -4 -4 2 -25
-11 -46 -30 -20 -19 -39 -34 -42 -34 -3 0 -14 -9 -25 -19 -17 -16 -26 -17 -50
-9 -16 5 -29 13 -29 17 0 3 -17 15 -37 26 -21 11 -41 24 -44 28 -3 5 -12 9
-20 10 -8 2 -18 5 -24 9 -10 6 -111 -38 -139 -61 -8 -7 -21 -14 -28 -15 -7 -1
-23 -7 -34 -14 -12 -6 -24 -8 -28 -5 -3 3 -6 2 -6 -4 0 -9 -11 -14 -62 -28 -5
-2 -10 -4 -13 -5 -3 -1 -8 -3 -12 -4 -5 -1 -13 -4 -19 -8 -6 -4 -23 -9 -38
-12 -15 -3 -35 -11 -44 -18 -10 -8 -13 -9 -9 -1 10 16 -47 -13 -63 -32 -6 -8
-8 -20 -4 -26 5 -8 3 -9 -6 -4 -10 6 -12 3 -8 -13 4 -12 2 -22 -4 -22 -6 0 -8
-7 -5 -15 4 -8 2 -17 -4 -21 -6 -3 -8 -12 -5 -20 3 -7 1 -16 -5 -19 -5 -4 -7
-10 -5 -14 11 -17 -34 -51 -64 -47 -16 2 -31 -2 -33 -8 -3 -7 -10 -6 -22 4
-10 8 -16 10 -12 3 6 -10 -28 -12 -148 -12 -109 1 -155 5 -155 13 0 6 -5 4
-10 -4 -7 -11 -10 -11 -10 -2 0 7 -4 10 -10 7 -5 -3 -10 0 -10 7 0 10 -2 10
-9 -1 -12 -19 -51 -4 -52 20 -2 19 -4 32 -9 47 -2 4 -4 12 -4 17 -1 6 -8 21
-15 34 -7 13 -8 21 -3 17 6 -3 3 12 -6 34 -9 22 -23 40 -29 40 -7 0 -13 4 -13
8 0 5 -6 9 -12 10 -43 3 -58 7 -58 15 0 5 -7 7 -15 3 -8 -3 -15 -1 -15 3 0 5
-11 8 -25 7 -13 -2 -22 1 -19 6 3 4 -8 11 -25 14 -17 4 -31 11 -31 16 0 5 -4
6 -10 3 -5 -3 -24 2 -42 12 -18 9 -37 16 -41 15 -4 -1 -10 5 -13 13 -3 8 -10
12 -16 9 -5 -3 -17 0 -26 8 -28 22 -61 38 -77 38 -9 0 -14 4 -11 8 3 5 -3 8
-12 6 -29 -4 -62 -16 -62 -23 0 -3 -15 -12 -32 -20 -18 -8 -41 -22 -51 -33
-21 -22 -64 -24 -86 -3 -9 8 -28 26 -43 40 -16 14 -28 22 -28 18 0 -4 -5 0
-11 10 -5 9 -17 17 -24 17 -8 0 -14 4 -13 8 2 4 -30 40 -69 80 -40 40 -73 75
-73 79 0 3 -11 16 -26 29 -14 13 -21 24 -17 24 4 1 -3 10 -16 20 -13 11 -19
20 -13 20 6 0 8 9 5 19 -3 13 2 24 16 33 12 7 21 16 21 20 0 5 13 29 29 54 28
46 34 104 10 112 -5 2 -9 10 -9 18 0 8 -5 14 -12 14 -6 0 -8 3 -5 7 4 3 -3 21
-14 40 -11 18 -18 33 -14 33 3 0 -1 7 -9 16 -9 8 -14 20 -11 25 4 5 3 9 -2 9
-8 0 -33 62 -35 88 -1 6 -5 12 -10 12 -4 0 -8 14 -8 30 0 17 -5 30 -11 30 -6
0 -8 9 -4 21 5 15 4 19 -4 15 -7 -5 -11 2 -11 17 0 26 -50 93 -50 67 -1 -13
-2 -13 -13 1 -11 15 -25 18 -69 20 -10 0 -18 4 -18 9 0 4 -11 7 -24 6 -37 -4
-56 16 -58 63 -1 22 -4 41 -7 41 -7 0 -4 312 3 350 2 14 5 38 5 53 1 16 5 26
10 22 5 -3 12 -1 16 5 3 5 16 10 29 10 12 0 28 6 35 13 11 10 12 9 6 -3 -5 -9
1 -7 15 5 13 11 20 14 16 8 -4 -7 -2 -13 3 -13 6 0 11 5 11 11 0 6 7 9 15 5 8
-3 15 -1 15 5 0 6 5 7 10 4 6 -3 10 -1 10 5 0 6 4 9 8 6 5 -3 15 7 22 22 7 15
17 35 22 46 7 14 6 16 -4 10 -11 -6 -11 -5 0 9 8 9 10 22 6 29 -4 7 -4 10 1 6
4 -4 19 25 32 65 14 39 28 74 32 77 5 3 7 13 5 23 -1 9 1 17 5 17 4 0 13 16
20 35 7 21 17 33 23 29 6 -4 8 -2 4 4 -3 6 -2 13 4 17 5 3 10 15 10 25 0 10 4
20 10 22 19 6 17 54 -5 93 -45 82 -70 120 -77 123 -9 4 42 81 78 117 14 14 23
25 20 25 -3 0 6 11 20 25 14 14 29 25 34 25 6 0 9 3 8 8 -2 4 22 30 52 58 128
118 179 146 194 108 3 -8 10 -13 15 -9 5 3 16 -3 23 -12 7 -10 20 -19 28 -21
8 -2 23 -10 32 -19 9 -8 22 -12 27 -8 6 3 11 1 11 -4 0 -16 28 -8 90 24 30 16
58 30 63 31 4 1 10 3 15 4 4 1 11 2 15 1 5 -1 6 3 3 8 -4 5 11 15 31 21 21 7
49 19 62 27 18 12 22 12 16 2 -6 -11 -5 -12 6 -1 7 6 23 12 35 12 12 0 25 8
28 17 5 11 10 13 17 6 10 -10 130 40 128 55 -3 20 2 43 9 39 4 -3 7 5 8 16 2
32 9 66 16 73 4 3 4 12 2 19 -3 7 0 16 5 20 6 3 9 11 6 16 -6 9 7 11 83 13 17
0 32 3 32 7 0 3 68 6 150 5 83 0 150 -3 150 -6z"/>
<path d="M1790 3180 c0 -17 -70 -22 -82 -5 -5 6 -8 5 -8 -4 0 -7 -6 -11 -15
-7 -8 3 -20 0 -27 -7 -7 -7 -31 -12 -53 -12 -22 0 -42 -2 -45 -5 -3 -3 -30
-13 -60 -22 -66 -19 -123 -41 -130 -49 -3 -4 -20 -10 -37 -14 -18 -3 -33 -11
-33 -15 0 -5 -8 -7 -17 -3 -10 3 -15 3 -11 -2 7 -7 -57 -48 -94 -61 -10 -4
-18 -10 -18 -15 0 -5 -7 -9 -15 -9 -8 0 -15 -4 -15 -10 0 -5 -5 -10 -10 -10
-6 0 -21 -11 -34 -25 -13 -14 -28 -25 -35 -25 -6 0 -11 -4 -11 -10 0 -5 -6
-10 -14 -10 -8 0 -18 -5 -22 -12 -5 -7 -3 -8 7 -3 12 8 12 6 0 -8 -7 -9 -17
-17 -22 -17 -4 0 -20 -11 -35 -25 -15 -14 -23 -25 -18 -25 5 0 -2 -7 -14 -16
-12 -8 -19 -20 -16 -26 4 -7 2 -8 -4 -4 -6 3 -16 -3 -23 -15 -6 -12 -22 -32
-35 -44 -13 -12 -24 -27 -24 -32 0 -5 -8 -18 -18 -29 -10 -10 -21 -26 -25 -34
-4 -8 -18 -33 -31 -55 -13 -22 -22 -43 -19 -47 2 -5 -1 -8 -7 -8 -6 0 -9 -4
-6 -9 4 -5 3 -11 -1 -13 -8 -3 -44 -72 -49 -93 -1 -5 -12 -37 -23 -69 -12 -33
-21 -72 -21 -88 0 -15 -4 -28 -9 -28 -5 0 -8 -12 -6 -26 1 -14 -4 -32 -12 -40
-9 -8 -10 -14 -3 -14 6 0 8 -5 4 -11 -3 -6 -8 -32 -10 -57 -1 -26 -6 -60 -9
-75 -4 -21 -2 -27 6 -21 8 5 9 3 3 -7 -10 -17 -15 -71 -5 -65 4 3 7 -4 7 -15
0 -10 -4 -19 -9 -19 -4 0 -5 -5 -2 -11 4 -5 9 -34 11 -62 3 -29 7 -63 10 -77
3 -14 6 -32 7 -40 1 -8 7 -18 12 -22 6 -5 5 -8 -3 -8 -9 0 -9 -5 -2 -17 11
-21 34 -104 32 -115 -1 -5 3 -8 9 -8 5 0 8 -3 6 -8 -3 -4 3 -24 13 -45 11 -21
24 -54 30 -73 6 -19 16 -34 21 -34 5 0 9 -9 9 -20 0 -11 3 -20 8 -20 4 0 16
-18 26 -40 11 -22 23 -40 28 -40 4 0 7 -3 7 -7 -3 -21 2 -33 16 -33 8 0 15 -6
15 -12 0 -14 41 -68 78 -104 12 -11 22 -27 22 -34 0 -7 3 -11 6 -8 3 4 27 -15
54 -40 53 -52 88 -82 95 -82 2 0 16 -11 31 -25 15 -14 33 -25 40 -25 8 0 14
-4 14 -9 0 -5 14 -14 30 -20 17 -5 30 -15 30 -21 0 -6 4 -9 8 -6 5 3 18 -3 28
-13 11 -9 25 -16 32 -13 6 2 12 -1 12 -7 0 -6 3 -10 8 -9 8 1 46 -14 101 -40
19 -9 43 -15 53 -15 10 1 18 -2 18 -6 0 -7 99 -31 140 -33 14 -1 31 -6 38 -11
6 -5 12 -6 12 -1 0 5 5 2 10 -6 5 -8 10 -10 10 -4 0 6 7 11 15 11 8 0 15 -3
15 -6 0 -4 12 -6 28 -5 15 1 33 -3 40 -9 6 -5 12 -6 12 -1 0 5 11 9 25 9 14 0
25 -4 25 -8 0 -4 9 -3 20 3 15 8 20 8 20 -1 0 -8 4 -8 13 -1 7 6 18 7 26 2 16
-9 43 -2 36 10 -2 4 13 4 35 0 23 -4 40 -3 40 2 0 5 9 6 20 3 11 -3 20 -3 20
2 0 5 10 9 23 10 12 1 38 5 57 9 19 4 41 6 48 5 6 -1 12 3 12 9 0 6 8 10 18 9
9 -1 31 3 47 10 17 7 38 13 47 14 9 1 14 5 12 9 -3 4 8 10 23 14 15 4 34 11
41 17 6 5 12 6 12 2 0 -5 8 -1 18 8 10 10 22 14 25 10 4 -3 7 -1 7 6 0 8 7 11
15 7 8 -3 15 -1 15 3 0 9 77 59 113 73 9 4 17 12 17 18 0 5 6 10 14 10 8 0 18
9 21 20 4 11 10 18 15 15 10 -6 180 159 180 175 0 5 4 10 8 10 5 0 15 11 22
25 7 13 17 22 21 19 5 -3 6 3 2 12 -4 12 -3 15 5 10 7 -4 12 -1 12 8 0 9 4 16
8 16 5 0 14 16 22 35 7 19 16 32 19 30 5 -6 70 124 71 143 0 6 5 12 12 12 6 0
9 3 5 6 -3 4 0 19 9 35 8 16 14 31 14 34 -1 21 1 26 8 21 4 -2 8 5 9 17 1 12
4 34 7 50 17 73 -69 126 -121 75 -13 -14 -25 -31 -26 -39 -2 -8 -6 -20 -10
-26 -5 -7 -5 -13 -1 -13 3 0 1 -7 -6 -15 -6 -8 -9 -19 -5 -25 3 -5 1 -10 -4
-10 -6 0 -11 -9 -11 -20 0 -11 -5 -20 -11 -20 -5 0 -8 -4 -5 -9 6 -10 -82
-174 -96 -179 -4 -2 -8 -10 -8 -18 0 -8 -6 -17 -14 -20 -8 -3 -17 -17 -20 -30
-4 -14 -11 -22 -16 -19 -6 3 -10 2 -10 -3 0 -13 -52 -67 -62 -64 -4 1 -7 -2
-6 -7 6 -22 -251 -225 -270 -213 -2 2 -8 0 -11 -5 -10 -14 -112 -63 -105 -50
4 6 -1 5 -12 -4 -10 -9 -30 -19 -44 -22 -14 -3 -35 -9 -48 -12 -21 -7 -22 -5
-16 19 4 18 2 26 -7 26 -12 0 -12 2 0 9 10 6 10 10 1 16 -9 6 -9 9 0 15 9 6 9
12 0 30 -8 15 -8 20 -1 16 6 -4 11 -3 11 3 0 5 -5 13 -11 17 -8 5 -8 9 1 14 9
6 9 12 0 30 -8 15 -8 20 -1 16 6 -4 11 -3 11 3 0 5 -5 13 -11 17 -8 5 -8 9 1
14 9 6 9 12 0 30 -8 15 -8 20 -1 16 6 -4 11 -3 11 3 0 5 -5 13 -11 17 -8 5 -8
9 1 14 9 6 9 12 0 30 -7 13 -8 20 -2 16 6 -4 10 2 9 14 -1 11 -6 20 -12 20 -5
0 -4 4 4 9 10 6 10 10 1 16 -9 6 -9 9 0 15 9 6 9 12 0 30 -9 17 -9 21 0 15 14
-9 10 27 -5 37 -6 5 -6 8 2 8 11 0 10 30 -1 49 -3 4 6 18 19 29 14 12 25 20
25 17 0 -3 9 3 20 13 12 9 23 15 25 12 3 -3 12 5 20 18 9 12 23 22 31 22 8 0
14 4 14 10 0 5 11 15 24 22 14 7 24 15 23 18 -1 4 26 37 76 91 9 10 14 19 11
19 -4 0 -1 6 5 13 20 25 70 131 65 139 -3 4 -1 8 4 8 5 0 9 6 10 13 1 19 7 41
13 52 15 27 16 288 2 308 -5 7 -9 26 -9 44 1 17 -3 31 -8 30 -5 -1 -11 4 -14
12 -3 9 0 11 9 7 8 -4 5 0 -5 8 -11 9 -16 16 -12 16 4 0 -8 29 -27 64 -20 35
-33 67 -29 72 4 4 1 4 -5 0 -7 -4 -13 -2 -13 3 0 6 -8 19 -17 29 -10 11 -38
40 -61 65 -24 26 -49 44 -54 40 -7 -3 -8 -1 -4 5 4 7 3 12 -2 12 -4 0 -18 9
-30 20 -12 12 -22 18 -22 15 0 -4 -7 1 -16 9 -8 9 -22 16 -30 16 -8 0 -12 4
-9 10 3 6 -1 7 -9 4 -9 -3 -16 -1 -16 4 0 21 -89 -7 -91 -28 -2 -13 -6 -29 -9
-35 -6 -13 -6 -32 2 -47 5 -10 5 -18 0 -18 -10 0 -9 -51 1 -67 5 -7 4 -13 0
-13 -11 0 -10 -50 0 -67 5 -7 4 -13 0 -13 -10 0 -10 -70 0 -87 4 -6 3 -14 -2
-18 -5 -3 -7 -15 -5 -28 11 -43 5 -66 -24 -95 -12 -12 -22 -20 -22 -17 0 3
-10 -3 -22 -14 -11 -11 -26 -18 -31 -14 -6 3 -7 1 -3 -5 4 -7 3 -12 -3 -12 -5
0 -23 -11 -39 -25 -16 -13 -32 -22 -36 -18 -3 3 -6 2 -6 -4 0 -6 -7 -14 -16
-17 -8 -3 -12 -2 -9 4 3 5 -5 12 -19 16 -14 3 -28 15 -31 25 -4 11 -10 17 -15
14 -5 -3 -17 3 -27 15 -10 11 -23 20 -30 20 -7 0 -13 5 -13 10 0 6 -7 10 -15
10 -9 0 -18 7 -21 15 -4 8 -9 13 -13 10 -4 -2 -8 91 -8 208 0 212 -6 292 -23
282 -4 -3 -14 1 -22 8 -7 8 -24 12 -36 10 -31 -4 -99 -40 -122 -63 -11 -11
-20 -17 -20 -14 0 4 -13 -7 -30 -24 -16 -18 -30 -30 -30 -28 0 3 -13 -7 -28
-22 -15 -15 -27 -29 -26 -30 2 -3 -26 -39 -52 -66 -12 -13 -13 -14 -20 -43 -4
-13 -11 -23 -16 -23 -5 0 -6 -4 -3 -10 3 -5 2 -10 -4 -10 -6 0 -13 -16 -17
-35 -3 -19 -11 -35 -17 -35 -6 0 -7 -3 -4 -7 4 -3 1 -13 -6 -21 -10 -13 -9
-14 3 -7 12 7 13 6 3 -7 -11 -13 -17 -41 -27 -128 -1 -8 -6 -21 -10 -29 -6 -9
-5 -12 2 -7 14 8 11 -46 -3 -56 -7 -5 -6 -8 1 -8 6 0 11 -12 11 -27 1 -53 7
-93 13 -93 4 0 6 -10 5 -22 -1 -13 4 -32 12 -44 7 -11 10 -24 6 -27 -3 -4 -1
-7 6 -7 8 0 11 -7 7 -15 -3 -8 2 -19 12 -24 9 -6 13 -11 9 -11 -10 0 21 -56
46 -84 9 -11 17 -24 17 -28 0 -5 16 -24 35 -44 19 -19 35 -39 35 -44 0 -6 3
-9 8 -8 4 1 20 -10 36 -25 16 -14 33 -24 39 -20 5 3 7 1 4 -4 -6 -10 -1 -14
28 -24 6 -1 19 -11 29 -21 11 -10 26 -18 33 -18 8 0 11 -4 8 -10 -3 -5 0 -10
7 -10 8 0 9 -3 3 -8 -6 -4 -10 -115 -10 -297 0 -187 -4 -290 -10 -290 -5 0 -9
3 -8 7 2 4 -4 5 -13 1 -9 -3 -20 0 -25 8 -6 10 -9 11 -9 1 0 -8 -5 -9 -17 -3
-23 12 -97 45 -103 46 -3 1 -20 11 -39 22 -19 12 -38 20 -42 18 -4 -3 -9 2
-13 10 -3 8 -12 15 -21 15 -8 0 -15 5 -15 10 0 6 -9 10 -20 10 -11 0 -19 3
-18 8 2 4 0 8 -5 9 -4 2 -18 13 -31 25 -36 34 -69 58 -81 58 -5 0 -3 5 5 10
12 8 13 10 1 10 -8 0 -37 24 -65 54 -60 63 -88 96 -81 96 3 0 -4 11 -15 23
-23 27 -58 83 -66 110 -4 9 -10 17 -15 17 -5 0 -9 9 -9 19 0 11 -7 26 -15 35
-9 8 -16 18 -16 21 1 21 -13 65 -20 65 -5 0 -8 3 -7 8 0 4 -1 14 -4 22 -8 22
-29 101 -34 125 -2 11 -7 40 -12 65 -9 49 -7 268 2 340 4 25 8 54 9 65 1 11 6
25 9 31 4 6 9 21 12 35 4 25 12 49 26 84 30 78 46 111 53 116 5 3 8 9 8 13 -3
20 0 26 12 20 6 -4 9 -4 5 1 -8 9 42 105 55 105 5 0 5 5 2 10 -3 6 1 10 10 10
9 0 14 4 11 8 -3 5 8 24 25 43 16 19 29 38 29 42 0 5 5 5 10 2 6 -3 10 -1 10
6 0 13 51 65 62 61 4 -1 10 7 13 18 4 11 10 20 14 20 4 0 25 15 46 34 21 19
42 33 47 30 4 -3 8 2 8 11 0 9 5 13 10 10 6 -3 10 -1 10 6 0 7 3 10 6 6 6 -5
15 0 49 31 8 7 15 10 15 6 0 -3 7 -1 15 6 8 7 15 9 15 4 0 -5 4 -4 8 3 11 17
113 61 135 57 9 -1 15 2 11 7 -3 5 0 10 5 10 12 2 26 5 39 9 4 1 11 2 16 1 4
-1 13 2 20 7 16 14 116 33 186 36 19 1 41 6 49 10 10 7 12 5 6 -3 -6 -10 -3
-11 13 -2 14 7 23 8 27 1 4 -6 13 -7 24 -1 10 6 23 6 31 1 9 -5 19 -5 27 2 7
6 13 6 13 2 0 -5 28 -10 62 -12 34 -2 68 -8 75 -14 9 -7 13 -7 13 1 0 7 7 8
23 2 29 -12 60 -24 70 -26 4 -2 10 -4 15 -5 4 -1 11 -2 15 -1 4 1 18 -4 30
-11 12 -7 28 -13 35 -14 6 -1 35 -14 64 -28 29 -14 58 -26 66 -26 7 0 11 -4 8
-8 -3 -5 11 -14 30 -21 18 -7 34 -17 34 -23 0 -6 3 -9 6 -5 4 3 12 1 19 -6 7
-7 26 -21 41 -32 71 -50 195 -171 222 -217 9 -16 20 -28 24 -28 4 0 8 -7 8
-15 0 -8 3 -15 8 -15 4 0 16 -12 26 -27 13 -17 14 -24 5 -19 -8 4 -6 1 4 -7 9
-8 17 -22 17 -31 0 -9 3 -16 8 -16 7 0 12 -11 50 -100 24 -56 35 -83 36 -90 1
-3 5 -11 10 -19 7 -10 6 -12 -3 -6 -17 10 18 -46 38 -62 27 -23 77 -16 100 13
21 26 29 74 13 74 -5 0 -7 13 -6 30 1 16 -2 27 -7 24 -8 -5 -13 10 -10 30 1 4
-5 19 -14 32 -8 13 -13 24 -10 24 4 0 -1 10 -9 22 -9 12 -16 30 -16 38 0 9 -9
26 -19 37 -11 12 -17 24 -13 28 4 4 0 12 -8 18 -9 7 -22 27 -29 45 -7 17 -17
32 -22 32 -5 0 -11 11 -15 25 -3 14 -10 23 -14 20 -5 -3 -11 4 -15 15 -3 11
-11 20 -16 20 -5 0 -9 6 -9 14 0 8 -7 17 -16 20 -8 3 -12 10 -9 16 3 5 0 10
-7 10 -8 0 -20 10 -28 21 -19 28 -48 56 -93 93 -20 17 -33 34 -30 39 3 6 2 7
-4 4 -5 -3 -21 5 -36 19 -14 13 -31 24 -37 24 -5 0 -10 5 -10 10 0 6 -7 10
-15 10 -8 0 -15 5 -15 10 0 6 -7 10 -15 10 -8 0 -15 5 -15 11 0 5 -5 7 -10 4
-6 -3 -13 1 -16 9 -3 9 -10 14 -14 11 -5 -3 -15 1 -23 9 -8 8 -17 12 -21 9 -3
-4 -6 -1 -6 6 0 7 -4 9 -10 6 -5 -3 -10 -1 -10 4 0 6 -9 11 -20 11 -11 0 -20
4 -20 8 0 5 -6 9 -12 10 -26 2 -88 27 -88 35 0 5 -4 5 -10 2 -5 -3 -10 0 -10
7 0 9 -3 9 -10 -2 -5 -8 -10 -10 -10 -4 0 12 -63 29 -87 25 -7 -1 -13 2 -13 7
0 8 -10 11 -47 13 -10 0 -25 3 -33 6 -8 3 -36 7 -63 8 -26 2 -59 6 -73 9 -15
4 -23 3 -20 -3 3 -5 -3 -7 -14 -4 -11 3 -17 10 -13 17 4 6 0 5 -9 -2 -11 -9
-18 -10 -23 -2 -3 6 -11 8 -16 5 -20 -13 -53 -14 -61 -2 -6 9 -8 8 -8 -3z
m-269 -753 c-7 -7 -6 -17 0 -30 6 -11 7 -17 2 -14 -5 4 -9 -11 -9 -33 1 -22 5
-40 9 -40 4 0 4 -8 0 -17 -10 -22 -10 -44 0 -60 5 -7 4 -13 0 -13 -12 0 -10
-63 2 -72 6 -5 6 -8 -2 -8 -9 0 -9 -8 -1 -32 11 -33 26 -49 68 -78 12 -8 28
-21 36 -27 7 -7 17 -13 23 -13 6 0 11 -4 11 -9 0 -5 8 -12 18 -15 9 -3 29 -17
45 -31 15 -14 27 -23 27 -20 0 4 20 -10 44 -30 30 -24 57 -38 80 -39 20 -2 36
0 36 3 0 4 15 15 33 26 17 10 37 23 42 27 56 47 143 108 153 108 6 0 12 4 12
9 0 5 9 13 20 16 11 4 18 11 15 16 -5 8 7 13 26 11 8 -1 21 60 23 106 0 17 -3
32 -7 32 -5 0 -5 5 -1 11 11 18 10 109 -1 110 -7 0 -7 2 0 5 6 2 9 29 8 59 0
30 2 55 5 55 4 0 19 -15 34 -33 15 -17 39 -45 53 -62 14 -16 25 -36 25 -42 0
-7 3 -13 8 -13 6 0 21 -35 33 -80 2 -8 9 -18 14 -22 6 -5 4 -8 -5 -8 -13 0
-13 -2 -1 -9 9 -6 16 -30 18 -58 2 -26 5 -66 7 -88 1 -22 -2 -46 -8 -54 -9
-12 -8 -13 2 -7 11 7 12 4 4 -10 -5 -11 -7 -25 -5 -31 3 -7 1 -13 -5 -13 -5 0
-8 -14 -7 -31 1 -17 -3 -33 -9 -35 -7 -3 -13 -14 -13 -27 -1 -12 -7 -23 -13
-25 -5 -2 -8 -8 -4 -13 3 -5 1 -9 -4 -9 -8 0 -20 -24 -26 -52 0 -3 -5 -10 -10
-15 -5 -5 -6 -2 -1 6 5 9 4 12 -3 7 -7 -4 -12 -12 -12 -18 0 -5 -11 -23 -25
-40 -14 -16 -25 -26 -25 -22 0 5 -7 -2 -16 -14 -8 -12 -20 -20 -25 -17 -5 4
-9 -1 -9 -9 0 -9 -7 -16 -15 -16 -8 0 -15 -5 -15 -10 0 -10 -48 -35 -62 -32
-5 1 -8 -2 -8 -7 0 -8 -55 -24 -64 -18 -1 1 -10 -4 -19 -11 -8 -7 -38 -15 -66
-17 -28 -2 -55 -6 -60 -9 -5 -4 -13 -1 -17 5 -5 8 -9 7 -14 -2 -6 -9 -12 -10
-22 -1 -8 7 -19 7 -28 2 -9 -5 -19 -5 -27 1 -7 6 -16 8 -21 5 -5 -3 -20 1 -35
9 -15 8 -27 11 -27 8 0 -3 -6 -1 -12 4 -7 6 -21 9 -30 8 -10 -2 -18 0 -18 4 0
4 -19 18 -42 30 -75 38 -162 117 -190 170 -7 14 -17 29 -23 33 -5 4 -6 8 -2 8
5 0 1 7 -7 16 -9 8 -14 19 -11 24 3 5 1 11 -5 15 -6 4 -8 11 -5 16 4 5 1 9 -4
9 -6 0 -11 11 -11 25 0 14 -3 25 -8 25 -7 0 -9 21 -12 108 -1 24 -7 42 -13 42
-8 0 -8 3 -2 8 11 8 14 19 20 66 5 48 14 80 32 122 9 22 16 42 15 47 -1 4 3 7
8 7 5 0 10 5 10 11 0 7 8 18 18 26 10 9 11 12 2 7 -9 -4 -7 2 5 13 11 12 33
36 49 55 16 19 35 35 43 35 9 0 10 -4 4 -10z m392 -1101 c41 2 78 4 83 5 24 4
36 -2 30 -17 -3 -8 -2 -12 4 -9 6 3 10 1 10 -4 0 -6 -3 -11 -7 -11 -10 0 -9
-52 1 -68 4 -7 2 -12 -4 -12 -8 0 -8 -6 0 -20 8 -15 8 -20 -2 -20 -9 0 -9 -3
2 -10 13 -9 13 -10 0 -10 -13 0 -13 -1 0 -10 13 -9 13 -10 0 -10 -13 0 -13 -1
0 -10 8 -5 10 -10 4 -10 -8 0 -9 -13 -4 -40 5 -27 4 -40 -4 -40 -6 0 -4 -5 4
-10 8 -5 10 -10 4 -10 -8 0 -9 -13 -4 -40 5 -27 4 -40 -4 -40 -6 0 -4 -5 4
-10 13 -9 13 -10 0 -10 -13 0 -13 -1 0 -10 13 -9 13 -10 0 -10 -13 0 -13 -1 0
-10 11 -7 11 -10 2 -10 -10 0 -10 -5 -2 -20 8 -15 8 -20 -2 -20 -9 0 -9 -3 2
-10 8 -5 10 -10 5 -10 -6 0 -11 -9 -11 -20 0 -11 4 -20 9 -20 5 0 4 -7 -3 -15
-7 -9 -15 -13 -18 -10 -3 3 -11 0 -19 -6 -10 -9 -13 -8 -13 0 0 7 -5 9 -11 5
-18 -11 -103 -12 -116 -2 -7 6 -14 5 -18 -2 -5 -8 -10 -8 -20 0 -9 8 -15 8
-20 0 -4 -6 -12 -7 -23 -1 -17 9 -24 11 -43 11 -5 0 -8 4 -5 9 4 5 0 12 -6 14
-10 4 -9 8 2 16 12 8 12 11 1 11 -11 0 -11 3 -1 15 10 12 10 15 0 15 -9 0 -10
3 -1 13 6 8 8 17 4 21 -11 11 -10 40 2 48 6 5 5 8 -4 8 -11 0 -11 3 -1 15 10
12 10 15 0 15 -9 0 -9 4 1 17 12 14 12 15 1 9 -11 -7 -12 -4 -3 13 8 14 8 21
1 21 -5 0 -10 5 -10 11 0 5 4 8 9 4 6 -3 8 4 5 17 -10 41 -11 83 -3 99 4 8 4
21 -1 29 -6 9 -5 17 3 22 9 6 8 8 -2 8 -11 0 -11 3 -1 15 10 12 10 15 0 15
-10 0 -10 3 -1 14 7 8 8 17 4 19 -13 8 -8 58 5 66 7 4 35 5 62 1 27 -3 83 -5
123 -4z"/>
<path d="M3057 1941 c-30 -20 -37 -32 -37 -62 0 -38 29 -68 69 -73 28 -3 41 2
64 25 25 26 27 32 16 46 -10 12 -10 15 -1 9 10 -6 10 -2 0 18 -6 14 -18 26
-25 26 -8 0 -12 4 -9 9 10 16 -54 18 -77 2z"/>
</g>
</svg>
