<svg width="280" height="100" viewBox="0 0 280 100" fill="none" xmlns="http://www.w3.org/2000/svg">
<path d="M124.992 29.2V53H120.3V33.688H111.902V53H107.21V29.2H124.992ZM138.297 29.2C140.586 29.2 142.513 29.9707 144.077 31.512C145.641 33.0533 146.423 34.946 146.423 37.19C146.423 39.434 145.641 41.3267 144.077 42.868C142.513 44.4093 140.586 45.18 138.297 45.18H134.115V53H129.423V29.2H138.297ZM138.297 40.794C139.294 40.794 140.122 40.454 140.779 39.774C141.436 39.0713 141.765 38.21 141.765 37.19C141.765 36.1473 141.436 35.286 140.779 34.606C140.122 33.926 139.294 33.586 138.297 33.586H134.115V40.794H138.297ZM162.354 53L160.926 48.716H151.44L150.012 53H144.946L153.276 29.2H159.09L167.454 53H162.354ZM152.936 44.33H159.464L156.2 34.606L152.936 44.33ZM168.194 53V48.648C169.6 48.852 170.654 48.5687 171.356 47.798C172.059 47.0273 172.41 45.52 172.41 43.276V29.2H188.594V53H183.936V33.688H177.068V43.14C177.068 45.2027 176.819 46.9367 176.32 48.342C175.822 49.7473 175.13 50.79 174.246 51.47C173.385 52.15 172.456 52.6033 171.458 52.83C170.484 53.0567 169.396 53.1133 168.194 53ZM201.881 37.02C204.17 37.02 206.097 37.7907 207.661 39.332C209.225 40.8733 210.007 42.766 210.007 45.01C210.007 47.254 209.225 49.1467 207.661 50.688C206.097 52.2293 204.17 53 201.881 53H193.007V29.2H197.699V37.02H201.881ZM201.881 48.614C202.878 48.614 203.706 48.274 204.363 47.594C205.02 46.914 205.349 46.0527 205.349 45.01C205.349 43.99 205.02 43.14 204.363 42.46C203.706 41.7573 202.878 41.406 201.881 41.406H197.699V48.614H201.881ZM226.594 29.2H231.252V53H226.594V43.14H217.754V53H213.062V29.2H217.754V38.652H226.594V29.2ZM249.443 53V38.482L239.243 53H235.673V29.2H240.365V43.752L250.565 29.2H254.135V53H249.443ZM262.834 27.024V23.216H272.694V27.024H262.834ZM272.32 53V38.482L262.12 53H258.55V29.2H263.242V43.752L273.442 29.2H277.012V53H272.32Z" fill="#333333"/>
<path d="M130.5 67.2V91H125.842V75.564L119.144 86.614H118.6L111.902 75.598V91H107.21V67.2H112.038L118.872 78.454L125.672 67.2H130.5ZM150.235 91L148.807 86.716H139.321L137.893 91H132.827L141.157 67.2H146.971L155.335 91H150.235ZM140.817 82.33H147.345L144.081 72.606L140.817 82.33ZM161.93 65.024V61.216H171.79V65.024H161.93ZM171.416 91V76.482L161.216 91H157.646V67.2H162.338V81.752L172.538 67.2H176.108V91H171.416ZM191.811 91.476C188.229 91.476 185.271 90.286 182.937 87.906C180.602 85.526 179.434 82.5907 179.434 79.1C179.434 75.5867 180.602 72.6513 182.937 70.294C185.271 67.914 188.229 66.724 191.811 66.724C193.964 66.724 195.947 67.234 197.761 68.254C199.597 69.2513 201.025 70.6113 202.045 72.334L197.999 74.68C197.409 73.6147 196.571 72.7873 195.482 72.198C194.395 71.586 193.171 71.28 191.811 71.28C189.499 71.28 187.629 72.0053 186.201 73.456C184.795 74.9067 184.093 76.788 184.093 79.1C184.093 81.3893 184.795 83.2593 186.201 84.71C187.629 86.1607 189.499 86.886 191.811 86.886C193.171 86.886 194.395 86.5913 195.482 86.002C196.593 85.39 197.432 84.5627 197.999 83.52L202.045 85.866C201.025 87.5887 199.608 88.96 197.795 89.98C195.981 90.9773 193.987 91.476 191.811 91.476ZM220.569 67.2V71.688H214.143V91H209.451V71.688H203.059V67.2H220.569ZM227.881 86.512H237.911V91H223.189V67.2H237.741V71.688H227.881V76.754H236.891V81.174H227.881V86.512ZM250.092 67.2C252.381 67.2 254.308 67.9707 255.872 69.512C257.436 71.0533 258.218 72.946 258.218 75.19C258.218 77.434 257.436 79.3267 255.872 80.868C254.308 82.4093 252.381 83.18 250.092 83.18H245.91V91H241.218V67.2H250.092ZM250.092 78.794C251.089 78.794 251.916 78.454 252.574 77.774C253.231 77.0713 253.56 76.21 253.56 75.19C253.56 74.1473 253.231 73.286 252.574 72.606C251.916 71.926 251.089 71.586 250.092 71.586H245.91V78.794H250.092Z" fill="#333333"/>
<rect x="24.0358" y="25" width="68.8166" height="68.8166" rx="3.32447" fill="#333333"/>
<circle cx="58.1783" cy="58.8432" r="29.2554" stroke="white" stroke-width="7.31384"/>
<circle cx="58.1116" cy="58.881" r="25.4322" stroke="#333333" stroke-width="7.31384"/>
<path d="M17 86V92C2.5 77.5 7.5 64 17 64L16.5 69C14.5 76 17 79 17 86Z" fill="#06B8FF"/>
<circle cx="58.2779" cy="58.7148" r="35.0732" stroke="#06B8FF" stroke-width="5.6516"/>
<circle cx="58.5107" cy="57.5134" r="20.2793" fill="white"/>
<path d="M78.1251 57.3088C78.1251 86.8046 38.8963 82.3459 38.8963 57.3088C40.1871 59.0809 43.5432 62.522 46.6411 62.1105C49.739 61.6989 52.3654 58.6807 53.7124 57.3088C56.4061 54.5651 60.1103 54.3937 62.9724 57.3088C64.2779 58.6386 66.8784 62.1105 70.3804 62.1105C73.2426 62.1105 77.1823 58.2691 78.1251 57.3088Z" fill="#06B8FF" stroke="#06ADEF" stroke-width="1.32979"/>
<circle cx="69.2486" cy="54.3929" r="2.99203" fill="#06B8FF"/>
<circle cx="68.0851" cy="55.5565" r="0.498671" fill="white"/>
<circle cx="68.5837" cy="46.7466" r="2.65958" fill="#06B8FF"/>
<circle cx="63.597" cy="50.736" r="1.32979" fill="#06B8FF"/>
<circle cx="45.3298" cy="56.3298" r="1.32979" fill="#06B8FF"/>
<path d="M19.049 44.0871C19.049 44.0871 16.057 47 16.057 54.7254C13.6634 51.6668 11.7352 45.4723 11.0703 42.7573C-10.2063 33.1829 2.59294 7.68411 20.8775 13.0032C35.7711 -11.1989 57.4467 3.3623 59.7738 16.6601C54.7871 15.4966 46.8084 17.3251 40.8243 20.6495H26.8616C21.0105 20.6495 19.2153 24.9713 19.049 27.1322C19.4369 32.2852 19.049 44.0871 19.049 44.0871Z" fill="#06B8FF"/>
</svg>
